<?xml version="1.0" encoding="utf-8"?>
<!-- Generator: Adobe Illustrator 19.0.1, SVG Export Plug-In . SVG Version: 6.00 Build 0)  -->
<svg version="1.1" id="レイヤー_1" xmlns="http://www.w3.org/2000/svg" xmlns:xlink="http://www.w3.org/1999/xlink" x="0px"
	 y="0px" viewBox="-164 288 266.9 266.9" style="enable-background:new -164 288 266.9 266.9;" xml:space="preserve">
<style type="text/css">
	.st0{fill:#3A5691;}
	.st1{fill:#FFFFFF;}
</style>
<path class="st0" d="M-30.5,554.9L-30.5,554.9c-73.7,0-133.5-59.7-133.5-133.4v0c0-73.7,59.7-133.4,133.4-133.4h0
	c73.7,0,133.4,59.7,133.4,133.4v0C102.9,495.1,43.2,554.9-30.5,554.9z"/>
<path id="f" class="st1" d="M-9.8,554.9V451.5h34.7l5.2-40.3H-9.8v-25.7c0-11.7,3.2-19.6,20-19.6h21.3v-36
	c-3.7-0.5-16.4-1.6-31.1-1.6c-30.8,0-51.8,18.8-51.8,53.2v29.7h-34.8v40.3h34.8v103.4H-9.8z"/>
</svg>
