<?xml version="1.0" encoding="utf-8"?>
<!-- Generator: Adobe Illustrator 19.0.1, SVG Export Plug-In . SVG Version: 6.00 Build 0)  -->
<svg version="1.1" id="レイヤー_1" xmlns="http://www.w3.org/2000/svg" xmlns:xlink="http://www.w3.org/1999/xlink" x="0px"
	 y="0px" viewBox="0 0 163.9 33.5" style="enable-background:new 0 0 163.9 33.5;" xml:space="preserve">
<style type="text/css">
	.st0{fill:#040000;}
</style>
<g id="XMLID_357_">
	<path id="XMLID_360_" class="st0" d="M56.5,17.1H62v0.4h-0.3c-0.1,0-0.2,0-0.4,0.1s-0.3,0.1-0.5,0.2s-0.4,0.2-0.6,0.3
		s-0.4,0.3-0.5,0.4c-0.2,0.2-0.3,0.4-0.5,0.7s-0.4,0.6-0.7,1l-3.8,6v4c0,1,0.1,1.6,0.3,1.8c0.3,0.3,0.8,0.5,1.4,0.5H57V33h-6.8v-0.4
		h0.6c0.7,0,1.1-0.2,1.4-0.6c0.2-0.2,0.3-0.8,0.3-1.7v-3.8l-4.4-6.7c-0.3-0.4-0.5-0.7-0.7-1s-0.3-0.4-0.4-0.5c0,0-0.1-0.1-0.2-0.2
		s-0.2-0.2-0.4-0.3s-0.3-0.2-0.5-0.2s-0.4-0.1-0.6-0.1v-0.4h6.8v0.4h-0.4c-0.2,0-0.3,0-0.5,0.1s-0.3,0.1-0.5,0.2s-0.3,0.2-0.3,0.3
		s-0.1,0.3-0.1,0.5c0,0.3,0.2,0.8,0.7,1.5l3.3,5.1l3.1-4.9c0.5-0.7,0.7-1.3,0.7-1.6c0-0.2-0.1-0.3-0.1-0.5s-0.1-0.3-0.3-0.4
		s-0.3-0.2-0.5-0.2s-0.5-0.1-0.8-0.1V17.1z"/>
	<path id="XMLID_362_" class="st0" d="M62,30.7c0.2,0,0.3,0,0.5,0.1s0.3,0.2,0.4,0.3s0.2,0.3,0.3,0.4s0.1,0.3,0.1,0.5s0,0.3-0.1,0.5
		s-0.2,0.3-0.3,0.4s-0.3,0.2-0.4,0.3s-0.3,0.1-0.5,0.1s-0.3,0-0.5-0.1s-0.3-0.2-0.4-0.3s-0.2-0.3-0.3-0.4s-0.1-0.3-0.1-0.5
		c0-0.2,0-0.4,0.1-0.5s0.2-0.3,0.3-0.4s0.3-0.2,0.4-0.3S61.8,30.7,62,30.7z"/>
	<path id="XMLID_364_" class="st0" d="M64.7,17.1H69L78.7,29v-9.2c0-1-0.1-1.6-0.3-1.8c-0.3-0.3-0.8-0.5-1.4-0.5h-0.6v-0.4H82v0.4
		h-0.6c-0.7,0-1.1,0.2-1.4,0.6c-0.2,0.2-0.3,0.8-0.3,1.7v13.4h-0.4L68.9,20.5v9.8c0,1,0.1,1.6,0.3,1.8c0.3,0.3,0.7,0.5,1.4,0.5h0.6
		V33h-5.5v-0.4h0.6c0.7,0,1.2-0.2,1.4-0.6c0.2-0.2,0.3-0.8,0.3-1.7V19.2c-0.2-0.3-0.4-0.5-0.6-0.7s-0.3-0.3-0.4-0.4
		s-0.3-0.2-0.5-0.3s-0.4-0.1-0.6-0.2c-0.2-0.1-0.6-0.1-1-0.1V17.1z"/>
	<path id="XMLID_368_" class="st0" d="M85.8,21.9v8.6c0,0.3,0,0.6,0,0.8s0.1,0.4,0.1,0.5s0.1,0.2,0.2,0.3s0.2,0.1,0.3,0.2
		c0.2,0.1,0.6,0.2,1.1,0.2V33h-5.2v-0.4c0.3,0,0.5,0,0.7,0s0.3-0.1,0.4-0.1s0.2-0.1,0.2-0.2s0.1-0.2,0.2-0.3
		c0.1-0.2,0.2-0.7,0.2-1.3v-4.1c0-0.7,0-1.2,0-1.6s-0.1-0.7-0.1-0.9s-0.1-0.3-0.3-0.4s-0.3-0.1-0.4-0.1c-0.2,0-0.5,0.1-0.8,0.2
		l-0.2-0.4l3.2-1.3H85.8z M84.9,16.3c0.2,0,0.3,0,0.5,0.1s0.3,0.1,0.4,0.3s0.2,0.2,0.3,0.4s0.1,0.3,0.1,0.5s0,0.3-0.1,0.5
		s-0.1,0.3-0.3,0.4s-0.2,0.2-0.4,0.3s-0.3,0.1-0.5,0.1s-0.3,0-0.5-0.1s-0.3-0.1-0.4-0.3s-0.2-0.2-0.3-0.4s-0.1-0.3-0.1-0.5
		s0-0.3,0.1-0.5s0.1-0.3,0.3-0.4s0.2-0.2,0.4-0.3S84.7,16.3,84.9,16.3z"/>
	<path id="XMLID_373_" class="st0" d="M95.3,21.9v3.7h-0.4c-0.1-0.6-0.3-1.1-0.5-1.4s-0.4-0.7-0.6-0.9s-0.5-0.4-0.8-0.5
		s-0.6-0.1-1-0.1c-0.3,0-0.5,0-0.7,0.1s-0.4,0.2-0.6,0.3s-0.3,0.3-0.4,0.4s-0.1,0.3-0.1,0.5c0,0.2,0,0.4,0.1,0.6s0.2,0.4,0.4,0.6
		s0.5,0.4,0.9,0.6s0.9,0.5,1.5,0.8c0.6,0.3,1.1,0.6,1.5,0.8s0.7,0.5,1,0.8s0.4,0.6,0.5,0.8s0.2,0.6,0.2,0.9c0,0.5-0.1,0.9-0.3,1.3
		s-0.5,0.7-0.8,1s-0.7,0.5-1.1,0.7s-0.9,0.2-1.3,0.2c-0.3,0-0.7,0-1.1-0.1s-0.8-0.1-1.2-0.3c-0.1,0-0.3-0.1-0.4-0.1s-0.2,0-0.3,0
		c-0.2,0-0.3,0.1-0.4,0.3h-0.4v-3.8h0.4c0.1,0.5,0.3,1,0.5,1.4s0.5,0.8,0.8,1s0.6,0.5,1,0.6s0.7,0.2,1.1,0.2c0.3,0,0.5,0,0.7-0.1
		s0.4-0.2,0.6-0.3s0.3-0.3,0.4-0.5s0.1-0.4,0.1-0.6c0-0.3,0-0.5-0.1-0.7s-0.2-0.4-0.4-0.6s-0.5-0.4-0.9-0.6s-0.8-0.5-1.4-0.8
		c-0.6-0.3-1-0.5-1.4-0.8s-0.6-0.5-0.8-0.7s-0.3-0.5-0.4-0.8s-0.1-0.6-0.1-0.9c0-0.4,0.1-0.8,0.2-1.2s0.4-0.7,0.7-1s0.6-0.5,1-0.7
		s0.8-0.2,1.3-0.2c0.1,0,0.3,0,0.6,0.1s0.5,0.1,0.7,0.2s0.5,0.1,0.7,0.2s0.3,0.1,0.4,0.1c0.1,0,0.2,0,0.3-0.1s0.2-0.2,0.2-0.4H95.3z
		"/>
	<path id="XMLID_377_" class="st0" d="M100.8,16.3v7.9c0.3-0.2,0.5-0.5,0.7-0.8s0.5-0.5,0.8-0.7s0.6-0.4,0.9-0.5s0.7-0.2,1.1-0.2
		c0.6,0,1,0.1,1.4,0.4s0.6,0.6,0.8,1s0.3,0.9,0.4,1.4s0.1,1.1,0.1,1.6v4.3c0,0.4,0,0.7,0,0.9s0.1,0.4,0.2,0.6s0.3,0.3,0.5,0.3
		s0.5,0.1,0.9,0.2V33h-5.3v-0.4h0.2c0.4,0,0.6,0,0.8-0.1s0.3-0.2,0.4-0.3s0.2-0.4,0.2-0.6s0-0.6,0-1v-4.3c0-0.3,0-0.7,0-1
		s-0.1-0.7-0.2-0.9s-0.3-0.5-0.5-0.7s-0.6-0.3-1-0.3c-0.2,0-0.4,0-0.6,0.1s-0.4,0.1-0.6,0.2s-0.4,0.3-0.7,0.5s-0.5,0.5-0.8,0.8v5.7
		c0,0.4,0,0.7,0,0.9s0,0.4,0.1,0.5s0.1,0.2,0.2,0.3s0.2,0.1,0.3,0.2c0.1,0.1,0.3,0.1,0.5,0.1s0.4,0,0.7,0V33h-5.3v-0.4
		c0.3,0,0.5,0,0.8-0.1s0.4-0.1,0.5-0.3s0.2-0.3,0.3-0.6s0.1-0.6,0.1-1.1v-9.7c0-1.2,0-2-0.1-2.3c-0.1-0.3-0.1-0.5-0.3-0.6
		s-0.3-0.2-0.5-0.2c-0.2,0-0.4,0.1-0.8,0.2l-0.2-0.4l3.2-1.3H100.8z"/>
	<path id="XMLID_380_" class="st0" d="M113.4,21.9v8.6c0,0.3,0,0.6,0,0.8s0.1,0.4,0.1,0.5s0.1,0.2,0.2,0.3s0.2,0.1,0.3,0.2
		c0.2,0.1,0.6,0.2,1.1,0.2V33h-5.2v-0.4c0.3,0,0.5,0,0.7,0s0.3-0.1,0.4-0.1s0.2-0.1,0.2-0.2s0.1-0.2,0.2-0.3
		c0.1-0.2,0.2-0.7,0.2-1.3v-4.1c0-0.7,0-1.2,0-1.6s-0.1-0.7-0.1-0.9s-0.1-0.3-0.3-0.4s-0.3-0.1-0.4-0.1c-0.2,0-0.5,0.1-0.8,0.2
		l-0.2-0.4l3.2-1.3H113.4z M112.4,16.3c0.2,0,0.3,0,0.5,0.1s0.3,0.1,0.4,0.3s0.2,0.2,0.3,0.4s0.1,0.3,0.1,0.5s0,0.3-0.1,0.5
		s-0.1,0.3-0.3,0.4s-0.2,0.2-0.4,0.3s-0.3,0.1-0.5,0.1s-0.3,0-0.5-0.1s-0.3-0.1-0.4-0.3s-0.2-0.2-0.3-0.4s-0.1-0.3-0.1-0.5
		s0-0.3,0.1-0.5s0.1-0.3,0.3-0.4s0.2-0.2,0.4-0.3S112.2,16.3,112.4,16.3z"/>
	<path id="XMLID_386_" class="st0" d="M119.5,24.2c0.8-0.8,1.2-1.2,1.4-1.3c0.4-0.3,0.7-0.5,1.1-0.7s0.8-0.2,1.2-0.2
		c0.7,0,1.3,0.2,1.7,0.6s0.8,1,1,1.7c0.8-0.9,1.5-1.5,2-1.8c0.6-0.3,1.1-0.4,1.7-0.4c0.4,0,0.8,0.1,1.1,0.2s0.6,0.4,0.9,0.7
		s0.5,0.7,0.6,1.2s0.2,1.2,0.2,1.9v4.6c0,0.4,0,0.7,0,0.9s0.1,0.5,0.2,0.6s0.3,0.3,0.5,0.4s0.5,0.1,0.9,0.1V33h-5.3v-0.4h0.2
		c0.4,0,0.7-0.1,0.9-0.2s0.4-0.4,0.5-0.7c0-0.1,0-0.5,0-1.1V26c0-0.5,0-0.9-0.1-1.3s-0.2-0.6-0.3-0.8s-0.3-0.3-0.6-0.4
		s-0.5-0.1-0.8-0.1c-0.2,0-0.4,0-0.6,0.1c-0.2,0-0.4,0.1-0.6,0.2s-0.5,0.3-0.7,0.5s-0.5,0.4-0.8,0.7l0,5.7c0,0.4,0,0.7,0,0.9
		s0,0.4,0.1,0.5s0.1,0.2,0.2,0.3s0.2,0.1,0.3,0.2c0.1,0.1,0.3,0.1,0.5,0.1s0.4,0,0.7,0V33h-5.4v-0.4c0.4,0,0.8,0,1-0.1
		s0.4-0.2,0.5-0.3s0.2-0.4,0.2-0.6s0-0.6,0-1V26c0-0.5,0-0.9-0.1-1.3s-0.2-0.6-0.4-0.8s-0.4-0.3-0.6-0.4s-0.5-0.1-0.7-0.1
		c-0.3,0-0.5,0-0.8,0.1s-0.5,0.2-0.8,0.4s-0.5,0.3-0.7,0.5s-0.4,0.3-0.5,0.5v5.8c0,0.4,0,0.7,0,0.9s0.1,0.4,0.1,0.5s0.1,0.2,0.2,0.3
		s0.2,0.1,0.3,0.2c0.2,0.1,0.6,0.2,1.2,0.2V33H116v-0.4c0.4,0,0.6,0,0.9-0.1s0.4-0.2,0.5-0.3s0.2-0.3,0.2-0.6s0.1-0.6,0.1-1v-4.1
		c0-0.7,0-1.2,0-1.6s-0.1-0.7-0.1-0.9s-0.1-0.3-0.3-0.4s-0.3-0.1-0.4-0.1c-0.2,0-0.5,0.1-0.8,0.2l-0.2-0.4l3.2-1.3h0.5V24.2z"/>
	<path id="XMLID_388_" class="st0" d="M143.4,22.3v6.5c0,1.3,0,2,0.1,2.3c0.1,0.3,0.2,0.5,0.3,0.6s0.3,0.2,0.5,0.2
		c0.2,0,0.5-0.1,0.8-0.2l0.2,0.4l-3.2,1.3h-0.5v-2.3c-0.9,1-1.6,1.6-2.1,1.9c-0.5,0.3-1,0.4-1.5,0.4c-0.6,0-1.1-0.2-1.6-0.5
		s-0.7-0.8-0.9-1.4c-0.2-0.5-0.3-1.3-0.3-2.3v-4.8c0-0.4,0-0.6-0.1-0.9s-0.2-0.4-0.3-0.5s-0.3-0.2-0.5-0.2s-0.5-0.1-0.8-0.1h-0.1
		v-0.4h3.8v7.2c0,0.5,0,0.9,0.1,1.3s0.2,0.6,0.4,0.7s0.4,0.3,0.6,0.4s0.4,0.1,0.7,0.1c0.2,0,0.3,0,0.5-0.1s0.4-0.1,0.6-0.2
		s0.4-0.3,0.7-0.5s0.5-0.4,0.8-0.7v-6.1c0-0.3,0-0.6-0.1-0.8s-0.1-0.4-0.3-0.5s-0.3-0.2-0.5-0.3s-0.5-0.1-0.9-0.1v-0.4H143.4z"/>
	<path id="XMLID_390_" class="st0" d="M149.2,21.9v2.4c0.9-1.6,1.8-2.4,2.8-2.4c0.2,0,0.4,0,0.6,0.1s0.3,0.2,0.5,0.3
		s0.2,0.3,0.3,0.4s0.1,0.3,0.1,0.5c0,0.3-0.1,0.6-0.3,0.8s-0.4,0.3-0.7,0.3c-0.1,0-0.3,0-0.4-0.1s-0.3-0.2-0.5-0.3s-0.3-0.2-0.4-0.3
		s-0.2-0.1-0.3-0.1c-0.1,0-0.2,0-0.3,0.1s-0.3,0.2-0.4,0.4s-0.3,0.4-0.4,0.6s-0.3,0.5-0.4,0.7v5.1c0,0.3,0,0.6,0.1,0.9
		s0.1,0.5,0.3,0.7s0.3,0.3,0.6,0.4s0.6,0.1,1,0.1V33h-5.5v-0.4c0.3,0,0.6,0,0.8-0.1s0.4-0.1,0.5-0.3s0.2-0.3,0.3-0.6s0.1-0.6,0.1-1
		v-4.2c0-1.3,0-2-0.1-2.2c-0.1-0.5-0.4-0.7-0.8-0.7c-0.2,0-0.5,0.1-0.8,0.2l-0.1-0.4l3.2-1.3H149.2z"/>
	<path id="XMLID_393_" class="st0" d="M160.1,31.4c-1.1,0.9-1.8,1.4-2.1,1.5c-0.4,0.2-0.9,0.3-1.3,0.3c-0.4,0-0.7-0.1-1-0.2
		s-0.6-0.3-0.8-0.6s-0.4-0.5-0.5-0.9s-0.2-0.7-0.2-1.1c0-0.3,0-0.6,0.1-0.8s0.2-0.5,0.4-0.7s0.4-0.5,0.6-0.7s0.6-0.4,0.9-0.6
		c0.8-0.5,2.1-1,4-1.7v-0.4c0-0.5,0-1-0.1-1.3s-0.2-0.6-0.4-0.9s-0.4-0.4-0.6-0.5s-0.5-0.1-0.8-0.1c-0.3,0-0.5,0-0.7,0.1
		s-0.4,0.2-0.5,0.3s-0.2,0.3-0.3,0.4s-0.1,0.3-0.1,0.5l0,0.7c0,0.4-0.1,0.6-0.3,0.8s-0.4,0.3-0.7,0.3c-0.3,0-0.5-0.1-0.7-0.3
		s-0.3-0.5-0.3-0.8c0-0.3,0.1-0.7,0.3-1s0.4-0.6,0.8-0.9s0.7-0.5,1.2-0.6s1-0.2,1.7-0.2c0.8,0,1.5,0.1,2.1,0.4s1,0.7,1.3,1.3
		c0.1,0.3,0.2,1,0.2,2.1v3.6c0,0.5,0,0.9,0,1.2s0,0.5,0,0.6c0,0.2,0.1,0.4,0.2,0.5s0.2,0.1,0.3,0.1c0.1,0,0.2,0,0.2,0
		s0.2-0.1,0.2-0.1s0.2-0.2,0.3-0.3s0.3-0.3,0.5-0.5v0.7c-0.9,1.2-1.7,1.8-2.5,1.8c-0.4,0-0.7-0.1-0.9-0.4S160.1,32.1,160.1,31.4z
		 M160.1,30.7v-4.1c-0.6,0.2-1.1,0.4-1.5,0.6s-0.7,0.3-0.8,0.4c-0.6,0.4-1.1,0.7-1.3,1.1s-0.4,0.8-0.4,1.2c0,0.3,0,0.5,0.1,0.8
		s0.2,0.4,0.4,0.6s0.3,0.3,0.5,0.4s0.4,0.1,0.6,0.1C158.4,31.9,159.1,31.5,160.1,30.7z"/>
</g>
<g id="XMLID_479_">
	<path id="XMLID_481_" class="st0" d="M23.5,13.1l-0.6-0.8l1.3-0.9c1.3-0.9,2.2-1.4,2.7-1.7c0.3-0.1,0.6-0.2,0.8-0.2
		s0.5,0.1,0.7,0.4c1,1.3,1.9,3.1,2.6,5.3c0.7,2.2,1.1,4.3,1.1,6.4c0,0.3,0,0.7,0,1.2c2-3.6,3-6.5,3-8.7c0-0.4-0.1-1-0.3-1.8
		c-0.2-0.8-0.3-1.4-0.3-1.8c0-0.3,0.1-0.6,0.3-0.8c0.2-0.2,0.5-0.3,0.8-0.3c0.4,0,0.7,0.2,1,0.5s0.4,0.8,0.4,1.4
		c0,1.5-0.3,3.4-1,5.7s-1.8,4.7-3.3,7.3s-2.8,4.5-4.1,5.8s-2.4,2.2-3.6,2.7s-2.2,0.8-3.2,0.8c-0.8,0-1.4-0.1-1.7-0.4s-0.6-0.6-0.6-1
		c0-0.4,0.2-0.7,0.5-0.9s0.7-0.4,1.2-0.4c0.4,0,0.9,0.1,1.6,0.2c0.7,0.2,1.2,0.2,1.5,0.2c0.7,0,1.5-0.3,2.3-0.9
		c1.1-0.8,2-1.8,2.6-2.9s1-2.3,1-3.4c0-1.6-0.2-3.6-0.7-5.9c-0.5-2.3-1.1-4-2-5.2c-0.4-0.6-0.9-0.9-1.4-0.9
		C25.4,11.9,24.6,12.3,23.5,13.1z"/>
	<path id="XMLID_483_" class="st0" d="M14.5,0.6L15,2.7c0.5,1.9,0.9,3.5,1.4,4.9c0.4,1.4,1.6,4.7,3.4,9.8c0.2-0.6,0.5-2.1,1.1-4.3
		c0.7-2.9,1.1-4.7,1.4-5.4c0.7-2.2,1.3-3.8,1.9-4.8s1.3-1.8,2-2.2S27.7,0,28.7,0c0.8,0,1.3,0.1,1.7,0.4S31,1.1,31,1.5
		c0,0.3-0.1,0.6-0.3,0.8S30.2,2.6,30,2.6c-0.2,0-0.5-0.1-0.7-0.2c-0.6-0.2-0.9-0.4-1.1-0.4C27.9,2,27.7,2,27.5,2
		c-0.6,0-1.1,0.2-1.5,0.6c-0.7,0.7-1.5,2.4-2.4,5.1c-0.9,2.7-2,7.1-3.3,13.1l-0.6,2.6c-1.3-2.9-2.2-5-2.7-6.3
		c-0.6-1.7-1.4-3.7-2.2-6.3l-1.9-6.1c-0.2,1.4-0.8,3.8-1.6,7.1s-1.4,5.3-1.5,5.8c-0.5,1.6-1.1,2.8-1.7,3.6s-1.3,1.5-2,1.8
		s-1.5,0.6-2.4,0.6c-1.1,0-2-0.2-2.7-0.7C0.3,22.6,0,22.1,0,21.6c0-0.2,0.1-0.5,0.3-0.7s0.4-0.3,0.7-0.3c0.4,0,0.8,0.2,1.2,0.6
		c0.8,0.7,1.4,1,2.1,1c0.7,0,1.3-0.3,2-0.9c1-0.9,1.9-2.8,2.8-5.7c1.1-3.5,2.1-8,3.1-13.4c-0.4,0-1.2,0.1-2.4,0.4s-2.1,0.6-2.9,1
		s-1.4,1-1.8,1.7S4.4,6.6,4.4,7.3c0,0.4,0.1,0.8,0.2,1.1C4.7,8.7,4.8,9,5,9.4c0.3,0.4,0.4,0.8,0.4,1c0,0.3-0.1,0.5-0.3,0.7
		s-0.5,0.3-0.8,0.3c-0.4,0-0.8-0.2-1.1-0.7S2.8,9.6,2.8,8.6c0-1.6,0.4-2.9,1.2-4s1.8-1.9,3.2-2.5C8,1.8,9.6,1.4,12,1.1
		C12.9,1,13.7,0.8,14.5,0.6z"/>
</g>
</svg>
